<svg xmlns="http://www.w3.org/2000/svg" width="68" height="42">
  <path d="M45.2 42h-22c-.6 0-1-.4-1-1V1c0-.6.4-1 1-1h22c.6 0 1 .4 1 1v40c0 .5-.5 1-1 1zm-21-2h20V2h-20z" fill="#fff"/>
  <path d="M36.7 5h-5c-.6 0-1-.4-1-1s.4-1 1-1h5c.6 0 1 .4 1 1s-.5 1-1 1zm-2.5 34c-1.4 0-2.5-1.1-2.5-2.5s1.1-2.5 2.5-2.5 2.5 1.1 2.5 2.5-1.2 2.5-2.5 2.5zm0-3.7c-.6 0-1.1.5-1.1 1.1 0 .6.5 1.1 1.1 1.1.6 0 1.1-.5 1.1-1.1 0-.6-.5-1.1-1.1-1.1zM61.21 13.303a.981.981 0 000 1.411l3.195 3.227H49.927v2.017h14.578l-3.195 3.328a.981.981 0 000 1.411c.4.404.998.404 1.398 0l4.992-4.94c.2-.202.3-.404.3-.707 0-.302-.1-.504-.3-.705l-4.992-4.942a.999.999 0 00-1.498-.1zM6.69 24.697a.981.981 0 000-1.411l-3.195-3.227h14.479v-2.017H3.395l3.195-3.328a.981.981 0 000-1.411.959.959 0 00-1.398 0L.2 18.243c-.1.202-.2.505-.2.707 0 .201.1.504.3.705l4.992 4.942c.3.504.999.504 1.398.1z" fill="#fff"/>
</svg>
