<svg xmlns="http://www.w3.org/2000/svg" width="27" height="45">
  <path d="M8.4 35.8h-1v-2.7c-1-.8-1.8-2-1.8-3.3.3-2.8-2-6.8-3-8.5l-.7-.9-.5-.7h.1A13.2 13.2 0 010 13.4C.1 6 6.1 0 13.5 0S27 6 27 13.5a13.2 13.2 0 01-1.5 6.1v.1l-.5.7-.6 1c-1 1.5-3.3 5.5-3 8.1 0 1.2 0 3-1 4v2.1h-7c-2.1.2-4.2.2-5 .2zM3.7 19.3l.6.8c1.4 2.2 3.8 6.5 3.5 9.7 0 .7.4 1.4 1 1.8l.6.3v2h9v-1.3l.4-.3c.5-.3.5-1.9.5-2.5-.3-3.1 2-7.3 3.5-9.5l.6-.9c1-1.8 1.7-3.8 1.7-5.8a11.5 11.5 0 10-21.4 5.7zM7.2 37h13v2h-13zm0 3h13v2h-13zm3 3h7v2h-7z" fill="#fff"/>
</svg>
