<svg xmlns="http://www.w3.org/2000/svg" viewBox="0 0 512 512">
  <path fill="#fff" d="M364 149a33 33 0 00-44 2l-79 87 26-90a32 32 0 00-60-21l-49 120a43 43 0 00-54 19l-18 33c-16 28-18 62-5 92 2 4 7 6 11 4s6-6 4-10l-1-3c-10-24-8-52 5-76l18-32 3-4c8-10 22-13 34-7l91 45c-4 6-9 11-15 14-8 4-17 4-26 1l-33-12c-6-2-12-1-17 1s-8 8-10 13l-4 21c-1 4 1 9 5 10 5 1 9-2 10-6l5-21c0-2 1-3 2-3h3l34 12c13 4 26 4 38-2h1a31 31 0 0031 32 32 32 0 0026 36l-19 23a92 92 0 01-97 30l-2-1c-4-1-8 1-9 6-2 4 1 8 5 9h1c40 13 85 1 114-34l72-86a31 31 0 00-19-51l3-4a31 31 0 00-19-51l42-50c11-14 9-35-4-46zm-15 192l-36 42c-5 7-15 8-22 2-7-5-7-15-2-22l35-42c6-7 16-8 23-2 6 5 7 15 2 22zm-19-77c7 6 8 16 2 23l-20 24-30 36c-5 7-15 8-22 2s-8-16-2-22l50-61c6-6 16-7 22-2zm26-79l-60 71-35 43-2-1-87-44 50-121a16 16 0 0128-3c2 4 3 9 2 13l-30 105c-1 5 1 11 6 14s12 2 15-3l88-97a17 17 0 0125 23zm77-116c-2-1-4 0-5 1-2 1-3 2-3 4l-8 37a153 153 0 00-190-64l6 14c64-26 138 0 172 60l-39-12a7 7 0 00-9 5c-1 4 1 8 5 10l63 18 14-65c1-3-2-7-6-8z"/>
</svg>
